<svg width="35" height="35" viewBox="0 0 35 35" fill="none" xmlns="http://www.w3.org/2000/svg">
<g clip-path="url(#clip0_0_320)">
<path d="M12.1921 1.15113C8.6951 2.36429 5.67925 4.6669 3.58758 7.72075C1.49591 10.7746 0.438673 14.4187 0.571157 18.1178C0.70364 21.817 2.01886 25.3761 4.32364 28.2725C6.62841 31.1689 9.80126 33.2499 13.3761 34.2097C16.2744 34.9576 19.3108 34.9904 22.2246 34.3054C24.8641 33.7126 27.3044 32.4443 29.3066 30.625C31.3904 28.6736 32.903 26.1911 33.6816 23.4445C34.5277 20.4576 34.6783 17.3166 34.1218 14.2625H17.8468V21.0136H27.2722C27.0839 22.0904 26.6802 23.1181 26.0854 24.0352C25.4906 24.9523 24.7168 25.74 23.8105 26.3511C22.6597 27.1128 21.3622 27.6251 20.0015 27.8551C18.6369 28.1089 17.2372 28.1089 15.8726 27.8551C14.4894 27.5694 13.181 26.9985 12.0308 26.1789C10.1828 24.8707 8.79516 23.0123 8.06597 20.8687C7.32465 18.685 7.32465 16.3177 8.06597 14.134C8.58502 12.6033 9.44309 11.2096 10.5761 10.057C11.8727 8.71373 13.5143 7.75355 15.3207 7.28181C17.1271 6.81008 19.0285 6.84501 20.8164 7.38278C22.2131 7.81132 23.4903 8.56041 24.5461 9.57028C25.6088 8.51298 26.6698 7.45296 27.7289 6.3902C28.2757 5.81871 28.8718 5.27457 29.4105 4.68941C27.7987 3.18966 25.9068 2.02259 23.8433 1.25504C20.0855 -0.109444 15.9737 -0.146113 12.1921 1.15113Z" fill="white"/>
<path d="M12.1931 1.15123C15.9743 -0.146896 20.0861 -0.111192 23.8442 1.2524C25.9081 2.02517 27.7991 3.19786 29.4087 4.70319C28.8618 5.28834 28.2849 5.83522 27.727 6.40397C26.6661 7.46308 25.6061 8.51855 24.547 9.57038C23.4912 8.56051 22.214 7.81142 20.8173 7.38288C19.03 6.84322 17.1287 6.80627 15.3218 7.27608C13.5149 7.74588 11.8723 8.7043 10.5743 10.0462C9.44127 11.1988 8.5832 12.5925 8.06414 14.1231L2.39578 9.73444C4.42471 5.71097 7.93767 2.63333 12.1931 1.15123Z" fill="#E33629"/>
<path d="M0.891246 14.082C1.19569 12.572 1.70151 11.1097 2.39515 9.73433L8.06352 14.1339C7.3222 16.3177 7.3222 18.685 8.06352 20.8687C6.17497 22.327 4.28552 23.7927 2.39515 25.2656C0.659235 21.8102 0.129811 17.8732 0.891246 14.082Z" fill="#F8BD00"/>
<path d="M17.8475 14.2598H34.1225C34.6789 17.3139 34.5283 20.4549 33.6823 23.4418C32.9036 26.1884 31.3911 28.6709 29.3073 30.6223C27.478 29.1949 25.6405 27.7785 23.8112 26.3512C24.7181 25.7394 25.4922 24.9509 26.087 24.0328C26.6819 23.1147 27.0852 22.0859 27.2729 21.0082H17.8475C17.8448 18.7605 17.8475 16.5101 17.8475 14.2598Z" fill="#587DBD"/>
<path d="M2.39283 25.2657C4.28319 23.8074 6.17265 22.3417 8.06119 20.8688C8.79184 23.0131 10.1814 24.8717 12.0315 26.179C13.1853 26.9948 14.4965 27.561 15.8815 27.8415C17.2461 28.0953 18.6458 28.0953 20.0104 27.8415C21.3711 27.6115 22.6686 27.0992 23.8194 26.3376C25.6487 27.7649 27.4862 29.1813 29.3155 30.6087C27.3136 32.429 24.8733 33.6982 22.2335 34.2919C19.3197 34.9769 16.2833 34.944 13.385 34.1962C11.0928 33.5841 8.95171 32.5052 7.09595 31.027C5.13193 29.4674 3.52769 27.5022 2.39283 25.2657Z" fill="#319F43"/>
</g>
<defs>
<clipPath id="clip0_0_320">
<rect width="34.725" height="34.725" fill="white" transform="scale(1.00792)"/>
</clipPath>
</defs>
</svg>
