<svg width="42" height="42" viewBox="0 0 42 42" fill="none" xmlns="http://www.w3.org/2000/svg">
<path d="M8.08498 31.7099C9.86998 30.3449 11.865 29.2683 14.07 28.4801C16.275 27.6919 18.585 27.2985 21 27.2999C23.415 27.2999 25.725 27.694 27.9299 28.4822C30.1349 29.2704 32.1299 30.3463 33.9149 31.7099C35.1399 30.2749 36.094 28.6474 36.7772 26.8274C37.4604 25.0075 37.8013 23.065 37.7999 21C37.7999 16.345 36.164 12.3809 32.8922 9.10768C29.6204 5.83449 25.6564 4.19859 21 4.19999C16.345 4.19999 12.3809 5.83589 9.10768 9.10768C5.83449 12.3795 4.19859 16.3436 4.19999 21C4.19999 23.065 4.54159 25.0075 5.22479 26.8274C5.90799 28.6474 6.86139 30.2749 8.08498 31.7099ZM21 23.1C18.935 23.1 17.1934 22.3916 15.7752 20.9748C14.357 19.558 13.6486 17.8164 13.65 15.75C13.65 13.685 14.3584 11.9434 15.7752 10.5252C17.192 9.10698 18.9336 8.39858 21 8.39998C23.065 8.39998 24.8066 9.10838 26.2248 10.5252C27.6429 11.942 28.3513 13.6836 28.3499 15.75C28.3499 17.815 27.6415 19.5566 26.2248 20.9748C24.808 22.393 23.0664 23.1014 21 23.1ZM21 41.9999C18.095 41.9999 15.365 41.4483 12.81 40.3451C10.255 39.2419 8.03249 37.746 6.14249 35.8574C4.25249 33.9674 2.7566 31.7449 1.6548 29.1899C0.552999 26.6349 0.0014 23.905 0 21C0 18.095 0.551599 15.365 1.6548 12.81C2.758 10.255 4.25389 8.03249 6.14249 6.14249C8.03249 4.25249 10.255 2.7566 12.81 1.6548C15.365 0.552999 18.095 0.0014 21 0C23.905 0 26.6349 0.551599 29.1899 1.6548C31.7449 2.758 33.9674 4.25389 35.8574 6.14249C37.7474 8.03249 39.244 10.255 40.3472 12.81C41.4504 15.365 42.0013 18.095 41.9999 21C41.9999 23.905 41.4483 26.6349 40.3451 29.1899C39.2419 31.7449 37.746 33.9674 35.8574 35.8574C33.9674 37.7474 31.7449 39.244 29.1899 40.3472C26.6349 41.4504 23.905 42.0013 21 41.9999Z" fill="white"/>
</svg>
