<svg width="35" height="45" viewBox="0 0 35 45" fill="none" xmlns="http://www.w3.org/2000/svg">
<g clip-path="url(#clip0_68_730)">
<path d="M12.0963 1.14209C8.62677 2.34571 5.63462 4.63023 3.55939 7.66008C1.48416 10.6899 0.435226 14.3054 0.566668 17.9755C0.698111 21.6455 2.003 25.1767 4.28966 28.0503C6.57633 30.924 9.72424 32.9886 13.271 33.9409C16.1465 34.6829 19.1591 34.7155 22.0499 34.0359C24.6687 33.4476 27.0899 32.1894 29.0763 30.3843C31.1438 28.4483 32.6444 25.9853 33.4169 23.2603C34.2564 20.2969 34.4058 17.1805 33.8537 14.1504H17.7066V20.8485H27.0579C26.871 21.9168 26.4705 22.9364 25.8804 23.8464C25.2903 24.7563 24.5226 25.5378 23.6234 26.1441C22.4817 26.8997 21.1944 27.408 19.8444 27.6362C18.4905 27.888 17.1018 27.888 15.7479 27.6362C14.3756 27.3528 13.0774 26.7864 11.9363 25.9732C10.1028 24.6753 8.72605 22.8314 8.00259 20.7047C7.26709 18.5382 7.26709 16.1895 8.00259 14.0229C8.51756 12.5043 9.36889 11.1215 10.493 9.97797C11.7794 8.64525 13.4081 7.69262 15.2003 7.22459C16.9925 6.75656 18.879 6.79122 20.6528 7.32476C22.0385 7.74994 23.3057 8.49315 24.3532 9.49508C25.4076 8.44609 26.4602 7.39439 27.511 6.33998C28.0536 5.77299 28.645 5.23312 29.1794 4.65257C27.5802 3.1646 25.7033 2.0067 23.656 1.24518C19.9276 -0.108584 15.8482 -0.144965 12.0963 1.14209Z" fill="white"/>
<path d="M12.0972 1.14218C15.8488 -0.145742 19.9282 -0.110318 23.6569 1.24256C25.7045 2.00925 27.5807 3.17273 29.1776 4.66623C28.635 5.24679 28.0626 5.78937 27.5092 6.35365C26.4566 7.40444 25.4049 8.45162 24.3541 9.49518C23.3066 8.49325 22.0394 7.75004 20.6537 7.32486C18.8805 6.78945 16.9941 6.75279 15.2014 7.2189C13.4087 7.68502 11.779 8.6359 10.4912 9.96722C9.36708 11.1108 8.51575 12.4935 8.00078 14.0121L2.37695 9.65795C4.38994 5.6661 7.8753 2.61264 12.0972 1.14218Z" fill="#E33629"/>
<path d="M0.884242 13.9713C1.18629 12.4732 1.68814 11.0224 2.37633 9.65784L8.00015 14.0229C7.26466 16.1894 7.26466 18.5382 8.00015 20.7047C6.12645 22.1516 4.25184 23.6057 2.37633 25.0671C0.654055 21.6388 0.128791 17.7328 0.884242 13.9713Z" fill="#F8BD00"/>
<path d="M17.7073 14.1477H33.8544C34.4064 17.1778 34.257 20.2942 33.4176 23.2576C32.6451 25.9826 31.1444 28.4456 29.077 30.3816C27.2621 28.9655 25.439 27.5602 23.6241 26.1441C24.5239 25.5372 25.2919 24.7548 25.882 23.8439C26.4722 22.933 26.8724 21.9124 27.0586 20.8431H17.7073C17.7045 18.6131 17.7073 16.3804 17.7073 14.1477Z" fill="#587DBD"/>
<path d="M2.37402 25.0672C4.24954 23.6203 6.12414 22.1662 7.99785 20.7048C8.72275 22.8323 10.1014 24.6762 11.937 25.9733C13.0817 26.7827 14.3826 27.3445 15.7567 27.6227C17.1106 27.8745 18.4993 27.8745 19.8532 27.6227C21.2032 27.3945 22.4905 26.8862 23.6322 26.1306C25.4472 27.5467 27.2702 28.952 29.0851 30.3681C27.099 32.1742 24.6778 33.4334 22.0588 34.0224C19.1679 34.702 16.1553 34.6694 13.2798 33.9275C11.0056 33.3202 8.88137 32.2498 7.0402 30.7832C5.0916 29.2358 3.49997 27.2861 2.37402 25.0672Z" fill="#319F43"/>
</g>
<defs>
<clipPath id="clip0_68_730">
<rect width="34.725" height="34.725" fill="white"/>
</clipPath>
</defs>
</svg>
