<svg width="33" height="33" viewBox="0 0 33 33" fill="none" xmlns="http://www.w3.org/2000/svg">
<g clip-path="url(#clip0_0_253)">
<path d="M14.2619 3.66051C14.2525 3.32133 14.3111 2.9837 14.4344 2.66757C14.5577 2.35144 14.7431 2.06324 14.9797 1.81999C15.2162 1.57675 15.4992 1.3834 15.8118 1.25137C16.1243 1.11935 16.4602 1.05132 16.7995 1.05132C17.1388 1.05132 17.4747 1.11935 17.7873 1.25137C18.0999 1.3834 18.3828 1.57675 18.6194 1.82C18.8559 2.06324 19.0413 2.35144 19.1646 2.66757C19.2879 2.9837 19.3466 3.32133 19.3371 3.66051L19.3371 14.1796C19.3371 14.1935 19.3398 14.2073 19.3452 14.2201C19.3505 14.233 19.3583 14.2446 19.3681 14.2545C19.3779 14.2643 19.3896 14.2721 19.4025 14.2774C19.4153 14.2828 19.4291 14.2855 19.443 14.2855H29.9621C30.2972 14.2827 30.6295 14.3463 30.9399 14.4726C31.2503 14.5989 31.5326 14.7854 31.7706 15.0214C32.0085 15.2574 32.1974 15.5381 32.3263 15.8474C32.4552 16.1568 32.5216 16.4886 32.5217 16.8237C32.5217 17.1588 32.4554 17.4906 32.3265 17.8C32.1977 18.1093 32.0089 18.3901 31.771 18.6261C31.5331 18.8621 31.2508 19.0487 30.9405 19.1751C30.6301 19.3015 30.2978 19.3652 29.9627 19.3625H19.4436C19.4297 19.3625 19.4159 19.3652 19.4031 19.3705C19.3902 19.3758 19.3785 19.3836 19.3687 19.3935C19.3589 19.4033 19.3511 19.415 19.3458 19.4279C19.3404 19.4407 19.3377 19.4545 19.3377 19.4684L19.3377 29.9874C19.3405 30.3225 19.2769 30.6549 19.1506 30.9653C19.0243 31.2757 18.8377 31.558 18.6018 31.7959C18.3658 32.0339 18.0851 32.2228 17.7757 32.3517C17.4664 32.4806 17.1346 32.547 16.7995 32.547C16.4644 32.5471 16.1326 32.4807 15.8232 32.3519C15.5139 32.2231 15.2331 32.0343 14.9971 31.7964C14.7611 31.5585 14.5745 31.2762 14.4481 30.9658C14.3217 30.6555 14.258 30.3231 14.2607 29.988L14.2607 19.469C14.2607 19.4551 14.258 19.4413 14.2527 19.4284C14.2474 19.4156 14.2396 19.4039 14.2297 19.3941C14.2199 19.3842 14.2082 19.3764 14.1953 19.3711C14.1825 19.3658 14.1687 19.3631 14.1548 19.3631H3.63575C2.96607 19.3577 2.32565 19.0879 1.85398 18.6125C1.38231 18.1371 1.1176 17.4946 1.11752 16.8249C1.11745 16.1552 1.382 15.5126 1.85356 15.0371C2.32512 14.5615 2.96548 14.2916 3.63515 14.2861L14.1542 14.2861C14.1681 14.2861 14.1819 14.2834 14.1947 14.278C14.2076 14.2727 14.2193 14.2649 14.2291 14.2551C14.239 14.2452 14.2468 14.2336 14.2521 14.2207C14.2574 14.2078 14.2601 14.1941 14.2601 14.1802L14.2601 3.66111L14.2619 3.66051Z" fill="#895263"/>
</g>
<defs>
<clipPath id="clip0_0_253">
<rect width="33" height="33" fill="white"/>
</clipPath>
</defs>
</svg>
