<svg width="43" height="42" viewBox="0 0 43 42" fill="none" xmlns="http://www.w3.org/2000/svg">
<path d="M8.98983 31.6253C10.7607 30.2712 12.7398 29.2031 14.9273 28.4212C17.1148 27.6392 19.4065 27.2489 21.8023 27.2503C24.1982 27.2503 26.4898 27.6413 28.6773 28.4232C30.8648 29.2052 32.844 30.2726 34.6148 31.6253C35.8301 30.2017 36.7766 28.5871 37.4544 26.7816C38.1322 24.976 38.4704 23.0489 38.469 21.0003C38.469 16.3823 36.8461 12.4496 33.6002 9.20241C30.3544 5.95519 26.4218 4.33227 21.8023 4.33366C17.1843 4.33366 13.2516 5.95658 10.0044 9.20241C6.75719 12.4482 5.13427 16.3809 5.13566 21.0003C5.13566 23.0489 5.47455 24.976 6.15233 26.7816C6.83011 28.5871 7.77594 30.2017 8.98983 31.6253ZM21.8023 23.0837C19.7537 23.0837 18.0259 22.3809 16.619 20.9753C15.2121 19.5698 14.5093 17.842 14.5107 15.792C14.5107 13.7434 15.2134 12.0156 16.619 10.6087C18.0246 9.20172 19.7523 8.49894 21.8023 8.50033C23.8509 8.50033 25.5787 9.2031 26.9857 10.6087C28.3926 12.0142 29.0954 13.742 29.094 15.792C29.094 17.8406 28.3912 19.5684 26.9857 20.9753C25.5801 22.3823 23.8523 23.085 21.8023 23.0837ZM21.8023 41.8337C18.9204 41.8337 16.2121 41.2864 13.6773 40.192C11.1426 39.0975 8.93775 37.6135 7.06275 35.7399C5.18775 33.8649 3.70372 31.66 2.61066 29.1253C1.51761 26.5906 0.970383 23.8823 0.968994 21.0003C0.968994 18.1184 1.51622 15.41 2.61066 12.8753C3.70511 10.3406 5.18913 8.13574 7.06275 6.26074C8.93775 4.38574 11.1426 2.90171 13.6773 1.80866C16.2121 0.715604 18.9204 0.168381 21.8023 0.166992C24.6843 0.166992 27.3926 0.714215 29.9273 1.80866C32.4621 2.9031 34.6669 4.38713 36.5419 6.26074C38.4169 8.13574 39.9016 10.3406 40.9961 12.8753C42.0905 15.41 42.6371 18.1184 42.6357 21.0003C42.6357 23.8823 42.0884 26.5906 40.994 29.1253C39.8996 31.66 38.4155 33.8649 36.5419 35.7399C34.6669 37.6149 32.4621 39.0996 29.9273 40.1941C27.3926 41.2885 24.6843 41.8351 21.8023 41.8337Z" fill="black"/>
</svg>
