<svg width="45" height="42" viewBox="0 0 45 42" fill="none" xmlns="http://www.w3.org/2000/svg">
<path d="M43.5476 20.6628L24.5943 1.71936L23.3239 0.44894C23.0345 0.161386 22.643 0 22.235 0C21.827 0 21.4355 0.161386 21.1461 0.44894L0.922361 20.6628C0.625755 20.9583 0.391343 21.3102 0.23296 21.6977C0.074578 22.0852 -0.00456482 22.5006 0.000203315 22.9192C0.0198237 24.6458 1.45702 26.0241 3.18361 26.0241H5.26828V42H39.2017V26.0241H41.3305C42.1693 26.0241 42.959 25.6955 43.5525 25.1019C43.8448 24.8106 44.0763 24.4643 44.2338 24.0828C44.3912 23.7014 44.4715 23.2926 44.4698 22.8799C44.4698 22.0461 44.1412 21.2564 43.5476 20.6628ZM24.9819 38.4683H19.4881V28.4619H24.9819V38.4683ZM35.6701 22.4924V38.4683H28.1211V27.2847C28.1211 26.2007 27.2431 25.3227 26.1591 25.3227H18.3109C17.2269 25.3227 16.3489 26.2007 16.3489 27.2847V38.4683H8.79994V22.4924H4.09105L22.2399 4.3583L23.373 5.49138L40.3838 22.4924H35.6701Z" fill="#1AB4BE"/>
</svg>
