<svg width="42" height="42" viewBox="0 0 42 42" fill="none" xmlns="http://www.w3.org/2000/svg">
<path d="M21.1356 0.165527C32.6418 0.165527 41.9689 9.49261 41.9689 20.9989C41.9689 32.5051 32.6418 41.8322 21.1356 41.8322C17.8106 41.8368 14.5331 41.0423 11.5793 39.5155L3.60851 41.7384C3.16381 41.8626 2.6941 41.8662 2.24752 41.749C1.80094 41.6318 1.39355 41.398 1.06708 41.0716C0.740605 40.7451 0.506798 40.3377 0.389612 39.8911C0.272425 39.4445 0.276073 38.9748 0.40018 38.5301L2.62518 30.5655C1.09466 27.6091 0.297936 24.3279 0.302264 20.9989C0.302264 9.49261 9.62935 0.165527 21.1356 0.165527ZM21.1356 3.29053C16.4391 3.29053 11.9349 5.15622 8.61391 8.47718C5.29296 11.7981 3.42726 16.3023 3.42726 20.9989C3.42726 24.0614 4.20435 27.0051 5.66268 29.6176L5.97518 30.1801L3.65851 38.4801L11.9648 36.1634L12.5273 36.4759C14.8906 37.7899 17.5234 38.5452 20.2238 38.6839C22.9243 38.8226 25.6206 38.341 28.1061 37.2761C30.5916 36.2113 32.8002 34.5913 34.5626 32.5405C36.3249 30.4898 37.5943 28.0626 38.2732 25.4453C38.9522 22.8279 39.0227 20.0898 38.4794 17.4409C37.9361 14.7921 36.7935 12.3028 35.139 10.164C33.4846 8.0252 31.3623 6.29369 28.9349 5.10224C26.5076 3.91079 23.8396 3.29105 21.1356 3.29053ZM14.3648 23.0822H23.7356C24.1315 23.0823 24.5126 23.2327 24.8018 23.503C25.0911 23.7732 25.267 24.1432 25.294 24.5382C25.321 24.9332 25.197 25.3236 24.9472 25.6307C24.6974 25.9378 24.3403 26.1387 23.9481 26.1926L23.7356 26.2072H14.3648C13.9689 26.2071 13.5878 26.0567 13.2985 25.7864C13.0093 25.5162 12.8334 25.1462 12.8064 24.7512C12.7794 24.3562 12.9033 23.9658 13.1532 23.6587C13.403 23.3516 13.7601 23.1507 14.1523 23.0968L14.3648 23.0822ZM14.3648 15.7905H27.9168C28.3126 15.7912 28.6933 15.9419 28.9821 16.2124C29.271 16.4828 29.4465 16.8528 29.4732 17.2476C29.4999 17.6424 29.3759 18.0326 29.126 18.3395C28.8762 18.6464 28.5193 18.847 28.1273 18.9009L27.9168 18.9155H14.3648C13.9689 18.9154 13.5878 18.765 13.2985 18.4948C13.0093 18.2245 12.8334 17.8545 12.8064 17.4595C12.7794 17.0646 12.9033 16.6741 13.1532 16.367C13.403 16.0599 13.7601 15.8591 14.1523 15.8051L14.3648 15.7905Z" fill="black"/>
</svg>
