<svg width="160" height="160" viewBox="0 0 160 160" fill="none" xmlns="http://www.w3.org/2000/svg">
<path fill-rule="evenodd" clip-rule="evenodd" d="M80 0C35.816 0 0 35.816 0 80C0 124.184 35.816 160 80 160C124.184 160 160 124.184 160 80C160 35.816 124.184 0 80 0ZM52 60C52 56.323 52.7242 52.682 54.1314 49.2849C55.5385 45.8877 57.601 42.801 60.201 40.201C62.8011 37.601 65.8877 35.5385 69.2849 34.1314C72.682 32.7242 76.323 32 80 32C83.677 32 87.318 32.7242 90.7151 34.1314C94.1123 35.5385 97.1989 37.601 99.799 40.201C102.399 42.801 104.461 45.8877 105.869 49.2849C107.276 52.682 108 56.323 108 60C108 67.4261 105.05 74.548 99.799 79.799C94.548 85.05 87.4261 88 80 88C72.5739 88 65.452 85.05 60.201 79.799C54.95 74.548 52 67.4261 52 60ZM130.064 119.872C124.075 127.405 116.462 133.488 107.793 137.666C99.1243 141.844 89.6233 144.009 80 144C70.3767 144.009 60.8757 141.844 52.2066 137.666C43.5376 133.488 35.9245 127.405 29.936 119.872C42.904 110.568 60.6 104 80 104C99.4 104 117.096 110.568 130.064 119.872Z" fill="#797979"/>
</svg>
