<svg width="43" height="42" viewBox="0 0 43 42" fill="none" xmlns="http://www.w3.org/2000/svg">
<path d="M33.3731 10.5825H36.3495V15.0471H33.3731V10.5825ZM37.8377 6.11783H42.3023V9.09426H37.8377V6.11783ZM33.3731 0.164978H36.3495V4.62962H33.3731V0.164978ZM27.4202 6.11783H31.8848V9.09426H27.4202V6.11783ZM22.9556 23.9764V27.9946L19.235 26.9528L18.4909 29.7804L22.0626 30.8222L19.9791 34.3939L22.5091 35.8821L24.4438 32.608L26.3785 35.8821L28.9084 34.3939L26.8249 30.8222L30.3966 29.7804L29.6525 26.9528L25.932 27.9946V23.9764H22.9556ZM14.0263 23.9764V19.5118H18.4909V16.5353H14.0263V12.0707H11.0498V16.5353H6.58521V19.5118H11.0498V23.9764H14.0263Z" fill="black"/>
<path d="M33.373 38.8585H3.60875V9.09423H22.9555V6.1178H3.60875C2.82008 6.12015 2.06438 6.4345 1.5067 6.99218C0.949023 7.54985 0.63468 8.30555 0.632324 9.09423V38.8585C0.63468 39.6472 0.949023 40.4029 1.5067 40.9606C2.06438 41.5182 2.82008 41.8326 3.60875 41.8349H33.373C34.1617 41.8326 34.9174 41.5182 35.4751 40.9606C36.0328 40.4029 36.3471 39.6472 36.3495 38.8585V19.5117H33.373V38.8585Z" fill="black"/>
</svg>
