<svg width="45" height="42" viewBox="0 0 45 42" fill="none" xmlns="http://www.w3.org/2000/svg">
<path d="M43.7141 20.6644L24.8469 1.80701L23.5822 0.542359C23.2941 0.256112 22.9044 0.095459 22.4982 0.095459C22.0921 0.095459 21.7024 0.256112 21.4143 0.542359L1.28243 20.6644C0.987171 20.9585 0.753823 21.3088 0.59616 21.6946C0.438497 22.0804 0.359714 22.4938 0.36446 22.9105C0.383991 24.6293 1.81466 26.0013 3.53341 26.0013H5.6086V41.9047H39.3879V26.0013H41.507C42.342 26.0013 43.1281 25.6742 43.7189 25.0834C44.0099 24.7934 44.2404 24.4486 44.3971 24.0689C44.5538 23.6892 44.6337 23.2822 44.632 22.8715C44.632 22.0414 44.3049 21.2552 43.7141 20.6644ZM25.2326 38.389H19.7639V28.4281H25.2326V38.389ZM35.8723 22.4857V38.389H28.3576V27.2562C28.3576 26.1771 27.4836 25.3031 26.4045 25.3031H18.592C17.5129 25.3031 16.6389 26.1771 16.6389 27.2562V38.389H9.12422V22.4857H4.43673L22.5031 4.43396L23.6311 5.56189L40.5647 22.4857H35.8723Z" fill="black"/>
</svg>
