<svg width="42" height="42" viewBox="0 0 42 42" fill="none" xmlns="http://www.w3.org/2000/svg">
<path d="M8.08494 31.7098C9.86992 30.3448 11.8649 29.2682 14.0699 28.48C16.2749 27.6918 18.5849 27.2984 20.9998 27.2998C23.4148 27.2998 25.7248 27.6939 27.9298 28.4821C30.1348 29.2703 32.1298 30.3462 33.9147 31.7098C35.1397 30.2748 36.0938 28.6473 36.777 26.8273C37.4602 25.0073 37.8011 23.0648 37.7997 20.9998C37.7997 16.3449 36.1638 12.3808 32.892 9.10763C29.6203 5.83445 25.6562 4.19857 20.9998 4.19997C16.3449 4.19997 12.3808 5.83585 9.10763 9.10763C5.83445 12.3794 4.19857 16.3435 4.19997 20.9998C4.19997 23.0648 4.54156 25.0073 5.22476 26.8273C5.90795 28.6473 6.86135 30.2748 8.08494 31.7098ZM20.9998 23.0998C18.9349 23.0998 17.1933 22.3914 15.7751 20.9746C14.3569 19.5578 13.6485 17.8163 13.6499 15.7499C13.6499 13.6849 14.3583 11.9433 15.7751 10.5251C17.1919 9.10693 18.9335 8.39854 20.9998 8.39994C23.0648 8.39994 24.8064 9.10833 26.2246 10.5251C27.6428 11.9419 28.3512 13.6835 28.3498 15.7499C28.3498 17.8149 27.6414 19.5564 26.2246 20.9746C24.8078 22.3928 23.0662 23.1012 20.9998 23.0998ZM20.9998 41.9997C18.0949 41.9997 15.3649 41.4481 12.8099 40.3449C10.2549 39.2417 8.03244 37.7458 6.14245 35.8572C4.25247 33.9672 2.75658 31.7448 1.65479 29.1898C0.552996 26.6348 0.00139999 23.9048 0 20.9998C0 18.0949 0.551596 15.3649 1.65479 12.8099C2.75798 10.2549 4.25387 8.03244 6.14245 6.14245C8.03244 4.25247 10.2549 2.75658 12.8099 1.65479C15.3649 0.552996 18.0949 0.00139999 20.9998 0C23.9048 0 26.6348 0.551596 29.1898 1.65479C31.7448 2.75798 33.9672 4.25387 35.8572 6.14245C37.7472 8.03244 39.2438 10.2549 40.347 12.8099C41.4502 15.3649 42.0011 18.0949 41.9997 20.9998C41.9997 23.9048 41.4481 26.6348 40.3449 29.1898C39.2417 31.7448 37.7458 33.9672 35.8572 35.8572C33.9672 37.7472 31.7448 39.2438 29.1898 40.347C26.6348 41.4502 23.9048 42.0011 20.9998 41.9997Z" fill="#1AB4BE"/>
</svg>
