<svg width="42" height="42" viewBox="0 0 42 42" fill="none" xmlns="http://www.w3.org/2000/svg">
<path d="M33.0001 10.5H36.0001V15H33.0001V10.5ZM37.5001 6.00001H42.0001V9.00002H37.5001V6.00001ZM33.0001 0H36.0001V4.50001H33.0001V0ZM27.0001 6.00001H31.5001V9.00002H27.0001V6.00001ZM22.5001 24V28.0501L18.7501 27L18.0001 29.8501L21.6001 30.9001L19.5001 34.5001L22.0501 36.0001L24.0001 32.7001L25.9501 36.0001L28.5001 34.5001L26.4001 30.9001L30.0001 29.8501L29.2501 27L25.5001 28.0501V24H22.5001ZM13.5 24V19.5H18.0001V16.5H13.5V12H10.5V16.5H6.00004V19.5H10.5V24H13.5Z" fill="white"/>
<path d="M33.0001 38.9998H3.00001V8.99979H22.5V5.99979H3.00001C2.20508 6.00216 1.4434 6.319 0.881304 6.88109C0.319208 7.44319 0.00237409 8.20487 0 8.99979V38.9998C0.00237409 39.7948 0.319208 40.5565 0.881304 41.1185C1.4434 41.6806 2.20508 41.9975 3.00001 41.9999H33.0001C33.795 41.9975 34.5567 41.6806 35.1188 41.1185C35.6809 40.5565 35.9977 39.7948 36.0001 38.9998V19.4998H33.0001V38.9998Z" fill="white"/>
</svg>
