<svg width="33" height="34" viewBox="0 0 33 34" fill="none" xmlns="http://www.w3.org/2000/svg">
<path d="M0.0889203 2.31462C-0.390794 0.823619 1.1615 -0.508264 2.56292 0.191859L32.0223 14.9192C33.3259 15.571 33.3259 17.4297 32.0223 18.0827L2.56292 32.81C1.16268 33.5102 -0.390794 32.1783 0.0889203 30.6873L4.65268 16.5009L0.0889203 2.31462ZM6.74834 17.6796L2.7633 30.0744L29.916 16.5009L2.76212 2.92752L6.7507 15.3211H20.0342C20.3468 15.3211 20.6466 15.4453 20.8676 15.6663C21.0886 15.8874 21.2128 16.1872 21.2128 16.4998C21.2128 16.8124 21.0886 17.1122 20.8676 17.3332C20.6466 17.5543 20.3468 17.6784 20.0342 17.6784H6.7507L6.74834 17.6796Z" fill="#895263"/>
</svg>
