<svg width="75" height="75" viewBox="0 0 75 75" fill="none" xmlns="http://www.w3.org/2000/svg">
<path fill-rule="evenodd" clip-rule="evenodd" d="M37.5 0C16.7888 0 0 16.7888 0 37.5C0 58.2113 16.7888 75 37.5 75C58.2113 75 75 58.2113 75 37.5C75 16.7888 58.2113 0 37.5 0ZM24.375 28.125C24.375 26.4014 24.7145 24.6947 25.3741 23.1023C26.0337 21.5099 27.0005 20.063 28.2192 18.8442C29.438 17.6255 30.8849 16.6587 32.4773 15.9991C34.0697 15.3395 35.7764 15 37.5 15C39.2236 15 40.9303 15.3395 42.5227 15.9991C44.1151 16.6587 45.562 17.6255 46.7808 18.8442C47.9995 20.063 48.9663 21.5099 49.6259 23.1023C50.2855 24.6947 50.625 26.4014 50.625 28.125C50.625 31.606 49.2422 34.9444 46.7808 37.4058C44.3194 39.8672 40.981 41.25 37.5 41.25C34.019 41.25 30.6806 39.8672 28.2192 37.4058C25.7578 34.9444 24.375 31.606 24.375 28.125ZM60.9675 56.19C58.1604 59.7211 54.5918 62.5723 50.5281 64.5308C46.4645 66.4892 42.0109 67.5042 37.5 67.5C32.9891 67.5042 28.5355 66.4892 24.4719 64.5308C20.4082 62.5723 16.8396 59.7211 14.0325 56.19C20.1112 51.8287 28.4062 48.75 37.5 48.75C46.5938 48.75 54.8887 51.8287 60.9675 56.19Z" fill="black"/>
</svg>
