<svg width="42" height="42" viewBox="0 0 42 42" fill="none" xmlns="http://www.w3.org/2000/svg">
<path d="M20.9989 0C32.5965 0 41.9977 9.40119 41.9977 20.9989C41.9977 32.5965 32.5965 41.9977 20.9989 41.9977C17.6474 42.0023 14.344 41.2015 11.3667 39.6626L3.33254 41.9032C2.8843 42.0283 2.41086 42.032 1.96073 41.9139C1.5106 41.7957 1.09997 41.5601 0.770906 41.231C0.441841 40.902 0.206177 40.4913 0.0880598 40.0412C-0.0300576 39.5911 -0.0263811 39.1176 0.0987121 38.6694L2.34139 30.6415C0.798713 27.6617 -0.00434424 24.3544 1.76746e-05 20.9989C1.76746e-05 9.40119 9.4012 0 20.9989 0ZM20.9989 3.14983C16.265 3.14983 11.725 5.03035 8.3777 8.37769C5.03036 11.725 3.14985 16.265 3.14985 20.9989C3.14985 24.0857 3.9331 27.0528 5.40302 29.6861L5.718 30.253L3.38293 38.619L11.7552 36.2839L12.3221 36.5989C14.7042 37.9233 17.358 38.6846 20.0798 38.8244C22.8017 38.9642 25.5195 38.4788 28.0247 37.4055C30.53 36.3321 32.7561 34.6993 34.5325 32.6322C36.3089 30.5652 37.5883 28.1188 38.2726 25.4806C38.957 22.8424 39.0281 20.0826 38.4805 17.4126C37.9329 14.7427 36.7811 12.2337 35.1135 10.0779C33.4459 7.92212 31.3068 6.17686 28.8602 4.97594C26.4135 3.77502 23.7244 3.15035 20.9989 3.14983ZM14.1742 23.0987H23.6195C24.0186 23.0989 24.4027 23.2504 24.6942 23.5229C24.9858 23.7953 25.1631 24.1682 25.1903 24.5663C25.2175 24.9644 25.0926 25.358 24.8408 25.6675C24.5889 25.9771 24.229 26.1795 23.8337 26.2339L23.6195 26.2486H14.1742C13.7752 26.2484 13.3911 26.0969 13.0995 25.8244C12.808 25.552 12.6307 25.1791 12.6035 24.781C12.5763 24.3829 12.7012 23.9893 12.953 23.6798C13.2048 23.3702 13.5648 23.1678 13.9601 23.1134L14.1742 23.0987ZM14.1742 15.7491H27.834C28.2328 15.7498 28.6166 15.9017 28.9078 16.1743C29.1989 16.4469 29.3758 16.8198 29.4027 17.2178C29.4297 17.6157 29.3046 18.009 29.0528 18.3183C28.801 18.6277 28.4412 18.8299 28.0461 18.8843L27.834 18.899H14.1742C13.7752 18.8988 13.3911 18.7473 13.0995 18.4748C12.808 18.2024 12.6307 17.8295 12.6035 17.4314C12.5763 17.0333 12.7012 16.6397 12.953 16.3302C13.2048 16.0206 13.5648 15.8182 13.9601 15.7638L14.1742 15.7491Z" fill="#1AB4BE"/>
</svg>
