<svg width="45" height="42" viewBox="0 0 45 42" fill="none" xmlns="http://www.w3.org/2000/svg">
<path d="M43.5478 20.6629L24.5944 1.71936L23.324 0.448941C23.0345 0.161387 22.6431 0 22.2351 0C21.827 0 21.4356 0.161387 21.1461 0.448941L0.922364 20.6629C0.625757 20.9583 0.391344 21.3102 0.232961 21.6978C0.0745782 22.0853 -0.00456483 22.5006 0.000203315 22.9192C0.0198238 24.6458 1.45702 26.0242 3.18362 26.0242H5.26829V42.0001H39.2018V26.0242H41.3307C42.1694 26.0242 42.9591 25.6955 43.5527 25.102C43.8449 24.8107 44.0765 24.4643 44.2339 24.0829C44.3914 23.7015 44.4716 23.2926 44.4699 22.88C44.4699 22.0461 44.1413 21.2564 43.5478 20.6629ZM24.9819 38.4684H19.4882V28.462H24.9819V38.4684ZM35.6702 22.4925V38.4684H28.1212V27.2848C28.1212 26.2008 27.2432 25.3228 26.1592 25.3228H18.311C17.2269 25.3228 16.3489 26.2008 16.3489 27.2848V38.4684H8.79997V22.4925H4.09106L22.24 4.35831L23.373 5.49139L40.384 22.4925H35.6702Z" fill="white"/>
</svg>
